<svg width="7" height="14" viewBox="0 0 7 14" fill="none" xmlns="http://www.w3.org/2000/svg">
<path d="M5.70343 13.9426C5.91906 13.943 6.12803 13.8679 6.29407 13.7304C6.38752 13.6529 6.46477 13.5577 6.52139 13.4504C6.57801 13.343 6.61289 13.2255 6.62403 13.1046C6.63518 12.9837 6.62237 12.8619 6.58633 12.7459C6.5503 12.63 6.49175 12.5224 6.41404 12.4291L2.27957 7.48249L6.26638 2.52666C6.34304 2.43226 6.40029 2.32364 6.43484 2.20705C6.46938 2.09045 6.48054 1.96818 6.46768 1.84726C6.45481 1.72633 6.41818 1.60914 6.35988 1.50243C6.30158 1.39571 6.22276 1.30156 6.12795 1.22541C6.03247 1.14139 5.92065 1.07802 5.79951 1.03927C5.67837 1.00052 5.55053 0.987226 5.42401 1.00022C5.29749 1.01322 5.17502 1.05223 5.06429 1.11481C4.95356 1.17738 4.85697 1.26216 4.78056 1.36384L0.323075 6.90108C0.187337 7.06622 0.113133 7.27335 0.113133 7.48711C0.113133 7.70087 0.187337 7.908 0.323075 8.07313L4.93745 13.6104C5.03003 13.7221 5.14763 13.8103 5.28072 13.8681C5.41381 13.9258 5.55863 13.9513 5.70343 13.9426Z" fill="white"/>
</svg>
