<svg width="7" height="14" viewBox="0 0 7 14" fill="none" xmlns="http://www.w3.org/2000/svg">
<path d="M1.23602 13.9426C1.02039 13.943 0.811418 13.8679 0.645382 13.7304C0.551933 13.6529 0.474687 13.5577 0.418067 13.4504C0.361447 13.343 0.326566 13.2255 0.315421 13.1046C0.304277 12.9837 0.317088 12.8619 0.353121 12.7459C0.389154 12.63 0.447701 12.5224 0.525408 12.4291L4.65988 7.48249L0.673069 2.52666C0.59641 2.43226 0.539162 2.32364 0.504617 2.20705C0.470073 2.09045 0.458911 1.96818 0.471776 1.84726C0.48464 1.72633 0.521275 1.60914 0.579576 1.50243C0.637878 1.39571 0.716696 1.30156 0.8115 1.22541C0.906986 1.14139 1.01881 1.07802 1.13995 1.03927C1.26108 1.00052 1.38893 0.987226 1.51544 1.00022C1.64196 1.01322 1.76443 1.05223 1.87516 1.11481C1.98589 1.17738 2.08249 1.26216 2.1589 1.36384L6.61638 6.90108C6.75212 7.06622 6.82632 7.27335 6.82632 7.48711C6.82632 7.70087 6.75212 7.908 6.61638 8.07313L2.00201 13.6104C1.90943 13.7221 1.79182 13.8103 1.65873 13.8681C1.52565 13.9258 1.38083 13.9513 1.23602 13.9426Z" fill="white"/>
</svg>
